{"asset":{"generator":"3D Builder","version":"2.0"},"scene":0,"scenes":[{"nodes":[0]}],"nodes":[{"children":[1,2,3,4,5,6,7,8,9,10,11,12,13,14,15,16,17,18,19,20]},{"mesh":0,"matrix":[0.99999994039535522,0,0,0,0,-1.1920928244535389E-7,-0.99999982118606567,0,0,0.99999982118606567,-1.1920928244535389E-7,0,0,-0.020234998315572739,2.4121999953052864E-9,1]},{"mesh":1,"matrix":[0.99999994039535522,0,0,0,0,-1.1920928244535389E-7,-0.99999982118606567,0,0,0.99999982118606567,-1.1920928244535389E-7,0,0,-0.020234998315572739,2.4121999953052864E-9,1]},{"mesh":2,"matrix":[0.99999994039535522,0,0,0,0,-1.1920928244535389E-7,-0.99999982118606567,0,0,0.99999982118606567,-1.1920928244535389E-7,0,0,-0.020234998315572739,2.4121999953052864E-9,1]},{"mesh":3,"matrix":[0.99999994039535522,0,0,0,0,-1.1920928244535389E-7,-0.99999982118606567,0,0,0.99999982118606567,-1.1920928244535389E-7,0,0,-0.020234998315572739,2.4121999953052864E-9,1]},{"mesh":4,"matrix":[0.99999994039535522,0,0,0,0,-1.1920928244535389E-7,-0.99999982118606567,0,0,0.99999982118606567,-1.1920928244535389E-7,0,0,-0.020234998315572739,2.4121999953052864E-9,1]},{"mesh":5,"matrix":[0.99999994039535522,0,0,0,0,-1.1920928244535389E-7,-0.99999982118606567,0,0,0.99999982118606567,-1.1920928244535389E-7,0,0,-0.020234998315572739,2.4121999953052864E-9,1]},{"mesh":6,"matrix":[0.99999994039535522,0,0,0,0,-1.1920928244535389E-7,-0.99999982118606567,0,0,0.99999982118606567,-1.1920928244535389E-7,0,0,-0.020234998315572739,2.4121999953052864E-9,1]},{"mesh":7,"matrix":[0.99999994039535522,0,0,0,0,-1.1920928244535389E-7,-0.99999982118606567,0,0,0.99999982118606567,-1.1920928244535389E-7,0,0,-0.020234998315572739,2.4121999953052864E-9,1]},{"mesh":8,"matrix":[0.99999994039535522,0,0,0,0,-1.1920928244535389E-7,-0.99999982118606567,0,0,0.99999982118606567,-1.1920928244535389E-7,0,0,-0.020234998315572739,2.4121999953052864E-9,1]},{"mesh":9,"matrix":[0.99999994039535522,0,0,0,0,-1.1920928244535389E-7,-0.99999982118606567,0,0,0.99999982118606567,-1.1920928244535389E-7,0,0,-0.020234998315572739,2.4121999953052864E-9,1]},{"mesh":10,"matrix":[0.99999994039535522,0,0,0,0,-1.1920928244535389E-7,-0.99999982118606567,0,0,0.99999982118606567,-1.1920928244535389E-7,0,0,-0.020234998315572739,2.4121999953052864E-9,1]},{"mesh":11,"matrix":[0.99999994039535522,0,0,0,0,-1.1920928244535389E-7,-0.99999982118606567,0,0,0.99999982118606567,-1.1920928244535389E-7,0,0,-0.020234998315572739,2.4121999953052864E-9,1]},{"mesh":12,"matrix":[0.99999994039535522,0,0,0,0,-1.1920928244535389E-7,-0.99999982118606567,0,0,0.99999982118606567,-1.1920928244535389E-7,0,0,-0.020234998315572739,2.4121999953052864E-9,1]},{"mesh":13,"matrix":[0.99999994039535522,0,0,0,0,-1.1920928244535389E-7,-0.99999982118606567,0,0,0.99999982118606567,-1.1920928244535389E-7,0,0,-0.020234998315572739,2.4121999953052864E-9,1]},{"mesh":14,"matrix":[0.99999994039535522,0,0,0,0,-1.1920928244535389E-7,-0.99999982118606567,0,0,0.99999982118606567,-1.1920928244535389E-7,0,0,-0.020234998315572739,2.4121999953052864E-9,1]},{"mesh":15,"matrix":[0.99999994039535522,0,0,0,0,-1.1920928244535389E-7,-0.99999982118606567,0,0,0.99999982118606567,-1.1920928244535389E-7,0,0,-0.020234998315572739,2.4121999953052864E-9,1]},{"mesh":16,"matrix":[0.99999994039535522,0,0,0,0,-1.1920928244535389E-7,-0.99999982118606567,0,0,0.99999982118606567,-1.1920928244535389E-7,0,0,-0.020234998315572739,2.4121999953052864E-9,1]},{"mesh":17,"matrix":[0.99999994039535522,0,0,0,0,-1.1920928244535389E-7,-0.99999982118606567,0,0,0.99999982118606567,-1.1920928244535389E-7,0,0,-0.020234998315572739,2.4121999953052864E-9,1]},{"mesh":18,"matrix":[0.99999994039535522,0,0,0,0,-1.1920928244535389E-7,-0.99999982118606567,0,0,0.99999982118606567,-1.1920928244535389E-7,0,0,-0.020234998315572739,2.4121999953052864E-9,1]},{"mesh":19,"matrix":[0.99999994039535522,0,0,0,0,-1.1920928244535389E-7,-0.99999982118606567,0,0,0.99999982118606567,-1.1920928244535389E-7,0,0,-0.020234998315572739,2.4121999953052864E-9,1]}],"meshes":[{"primitives":[{"attributes":{"POSITION":0},"mode":4,"indices":1,"material":0}]},{"primitives":[{"attributes":{"POSITION":2},"mode":4,"indices":3,"material":0}]},{"primitives":[{"attributes":{"POSITION":4},"mode":4,"indices":5,"material":1}]},{"primitives":[{"attributes":{"POSITION":6},"mode":4,"indices":7,"material":0}]},{"primitives":[{"attributes":{"POSITION":8},"mode":4,"indices":9,"material":0}]},{"primitives":[{"attributes":{"POSITION":10},"mode":4,"indices":11,"material":0}]},{"primitives":[{"attributes":{"POSITION":12},"mode":4,"indices":13,"material":0}]},{"primitives":[{"attributes":{"POSITION":14},"mode":4,"indices":15,"material":0}]},{"primitives":[{"attributes":{"POSITION":16},"mode":4,"indices":17,"material":0}]},{"primitives":[{"attributes":{"POSITION":18},"mode":4,"indices":19,"material":0}]},{"primitives":[{"attributes":{"POSITION":20},"mode":4,"indices":21,"material":0}]},{"primitives":[{"attributes":{"POSITION":22},"mode":4,"indices":23,"material":0}]},{"primitives":[{"attributes":{"POSITION":24},"mode":4,"indices":25,"material":0}]},{"primitives":[{"attributes":{"POSITION":26},"mode":4,"indices":27,"material":0}]},{"primitives":[{"attributes":{"POSITION":28},"mode":4,"indices":29,"material":0}]},{"primitives":[{"attributes":{"POSITION":30},"mode":4,"indices":31,"material":0}]},{"primitives":[{"attributes":{"POSITION":32},"mode":4,"indices":33,"material":0}]},{"primitives":[{"attributes":{"POSITION":34},"mode":4,"indices":35,"material":0}]},{"primitives":[{"attributes":{"POSITION":36},"mode":4,"indices":37,"material":0}]},{"primitives":[{"attributes":{"POSITION":38},"mode":4,"indices":39,"material":0}]}],"materials":[{"name":"Default","pbrMetallicRoughness":{"baseColorFactor":[0.50288659334182739,0.50288659334182739,0.50288659334182739,1],"metallicFactor":0,"roughnessFactor":1},"alphaMode":"OPAQUE"},{"name":"Copper_6700c84c-c358-4ea3-a5b2-8fffa7c17d1e","pbrMetallicRoughness":{"baseColorFactor":[0.097529970109462738,0.16185973584651947,0.020302340388298035,1],"metallicFactor":0,"roughnessFactor":1},"alphaMode":"OPAQUE"}],"accessors":[{"bufferView":0,"byteOffset":0,"count":43,"componentType":5126,"type":"VEC3","min":[0.18899601697921753,0.082876004278659821,0.12424800544977188],"max":[0.26512300968170166,0.15069800615310669,0.22920501232147217]},{"bufferView":1,"byteOffset":0,"count":198,"componentType":5125,"type":"SCALAR"},{"bufferView":2,"byteOffset":0,"count":43,"componentType":5126,"type":"VEC3","min":[0.20246401429176331,0.089255005121231079,0.020235002040863037],"max":[0.2753480076789856,0.17643000185489655,0.105771005153656]},{"bufferView":3,"byteOffset":0,"count":198,"componentType":5125,"type":"SCALAR"},{"bufferView":4,"byteOffset":0,"count":22,"componentType":5126,"type":"VEC3","min":[-0.09706500917673111,0.011759000830352306,0.11154799908399582],"max":[-0.057869002223014832,0.0344570018351078,0.13405099511146545]},{"bufferView":5,"byteOffset":0,"count":120,"componentType":5125,"type":"SCALAR"},{"bufferView":6,"byteOffset":0,"count":22,"componentType":5126,"type":"VEC3","min":[0.10314500331878662,0.058972001075744629,0.056342002004384995],"max":[0.14522302150726318,0.074115000665187836,0.080836005508899689]},{"bufferView":7,"byteOffset":0,"count":120,"componentType":5125,"type":"SCALAR"},{"bufferView":8,"byteOffset":0,"count":22,"componentType":5126,"type":"VEC3","min":[-0.017080001533031464,0.010745000094175339,0.13416001200675964],"max":[-0.0003300000389572233,0.047430001199245453,0.16530801355838776]},{"bufferView":9,"byteOffset":0,"count":120,"componentType":5125,"type":"SCALAR"},{"bufferView":10,"byteOffset":0,"count":22,"componentType":5126,"type":"VEC3","min":[0.047457002103328705,0.039937000721693039,0.031790003180503845],"max":[0.065556004643440247,0.062250003218650818,0.070712998509407043]},{"bufferView":11,"byteOffset":0,"count":120,"componentType":5125,"type":"SCALAR"},{"bufferView":12,"byteOffset":0,"count":22,"componentType":5126,"type":"VEC3","min":[0.015327000059187412,0.018966000527143478,0.14289101958274841],"max":[0.027731001377105713,0.051285002380609512,0.17799700796604156]},{"bufferView":13,"byteOffset":0,"count":120,"componentType":5125,"type":"SCALAR"},{"bufferView":14,"byteOffset":0,"count":22,"componentType":5126,"type":"VEC3","min":[0.019491000100970268,0.030886001884937286,0.029519001021981239],"max":[0.031242001801729202,0.055021002888679504,0.06955999881029129]},{"bufferView":15,"byteOffset":0,"count":120,"componentType":5125,"type":"SCALAR"},{"bufferView":16,"byteOffset":0,"count":22,"componentType":5126,"type":"VEC3","min":[-0.057073004543781281,0.00558699993416667,0.12365200370550156],"max":[-0.029521001502871513,0.041084002703428268,0.15019400417804718]},{"bufferView":17,"byteOffset":0,"count":120,"componentType":5125,"type":"SCALAR"},{"bufferView":18,"byteOffset":0,"count":22,"componentType":5126,"type":"VEC3","min":[0.082975000143051147,0.045584000647068024,0.035284001380205154],"max":[0.095816008746623993,0.070223003625869751,0.075902007520198822]},{"bufferView":19,"byteOffset":0,"count":120,"componentType":5125,"type":"SCALAR"},{"bufferView":20,"byteOffset":0,"count":22,"componentType":5126,"type":"VEC3","min":[0.0988050028681755,0.043006002902984619,0.15170599520206451],"max":[0.12358400225639343,0.065429002046585083,0.18857601284980774]},{"bufferView":21,"byteOffset":0,"count":120,"componentType":5125,"type":"SCALAR"},{"bufferView":22,"byteOffset":0,"count":22,"componentType":5126,"type":"VEC3","min":[-0.074977003037929535,0.0098149999976158142,0.049060001969337463],"max":[-0.050287000834941864,0.03939400240778923,0.082742996513843536]},{"bufferView":23,"byteOffset":0,"count":120,"componentType":5125,"type":"SCALAR"},{"bufferView":24,"byteOffset":0,"count":22,"componentType":5126,"type":"VEC3","min":[0.041393004357814789,0.021985001862049103,0.14825800061225891],"max":[0.052953001111745834,0.057865004986524582,0.18117800354957581]},{"bufferView":25,"byteOffset":0,"count":120,"componentType":5125,"type":"SCALAR"},{"bufferView":26,"byteOffset":0,"count":22,"componentType":5126,"type":"VEC3","min":[-0.010047000832855701,0.015309000387787819,0.037349000573158264],"max":[0.0024630001280456781,0.051176998764276505,0.070540003478527069]},{"bufferView":27,"byteOffset":0,"count":120,"componentType":5125,"type":"SCALAR"},{"bufferView":28,"byteOffset":0,"count":22,"componentType":5126,"type":"VEC3","min":[0.071439005434513092,0.032405998557806015,0.15469799935817719],"max":[0.083960004150867462,0.06195400282740593,0.19087399542331696]},{"bufferView":29,"byteOffset":0,"count":120,"componentType":5125,"type":"SCALAR"},{"bufferView":30,"byteOffset":0,"count":22,"componentType":5126,"type":"VEC3","min":[-0.038359001278877258,0.024070000275969505,0.031520001590251923],"max":[-0.024902001023292542,0.043953999876976013,0.0745520070195198]},{"bufferView":31,"byteOffset":0,"count":120,"componentType":5125,"type":"SCALAR"},{"bufferView":32,"byteOffset":0,"count":172,"componentType":5126,"type":"VEC3","min":[-0.078119009733200073,0.015675000846385956,0.066014006733894348],"max":[0.13766799867153168,0.098100006580352783,0.16023200750350952]},{"bufferView":33,"byteOffset":0,"count":1020,"componentType":5125,"type":"SCALAR"},{"bufferView":34,"byteOffset":0,"count":45,"componentType":5126,"type":"VEC3","min":[0.14628900587558746,0.080583006143569946,0.13219700753688812],"max":[0.18921300768852234,0.10962600260972977,0.15398700535297394]},{"bufferView":35,"byteOffset":0,"count":225,"componentType":5125,"type":"SCALAR"},{"bufferView":36,"byteOffset":0,"count":48,"componentType":5126,"type":"VEC3","min":[0.1540210098028183,0.094626002013683319,0.085660010576248169],"max":[0.19060401618480682,0.11613401025533676,0.11397600173950195]},{"bufferView":37,"byteOffset":0,"count":237,"componentType":5125,"type":"SCALAR"},{"bufferView":38,"byteOffset":0,"count":190,"componentType":5126,"type":"VEC3","min":[0.12343400716781616,0.0670970007777214,0.080776005983352661],"max":[0.20716500282287598,0.11613401025533676,0.15398700535297394]},{"bufferView":39,"byteOffset":0,"count":1029,"componentType":5125,"type":"SCALAR"}],"bufferViews":[{"buffer":0,"byteOffset":0,"byteLength":516,"byteStride":12,"target":34962},{"buffer":0,"byteOffset":516,"byteLength":792,"target":34963},{"buffer":0,"byteOffset":1308,"byteLength":516,"byteStride":12,"target":34962},{"buffer":0,"byteOffset":1824,"byteLength":792,"target":34963},{"buffer":0,"byteOffset":2616,"byteLength":264,"byteStride":12,"target":34962},{"buffer":0,"byteOffset":2880,"byteLength":480,"target":34963},{"buffer":0,"byteOffset":3360,"byteLength":264,"byteStride":12,"target":34962},{"buffer":0,"byteOffset":3624,"byteLength":480,"target":34963},{"buffer":0,"byteOffset":4104,"byteLength":264,"byteStride":12,"target":34962},{"buffer":0,"byteOffset":4368,"byteLength":480,"target":34963},{"buffer":0,"byteOffset":4848,"byteLength":264,"byteStride":12,"target":34962},{"buffer":0,"byteOffset":5112,"byteLength":480,"target":34963},{"buffer":0,"byteOffset":5592,"byteLength":264,"byteStride":12,"target":34962},{"buffer":0,"byteOffset":5856,"byteLength":480,"target":34963},{"buffer":0,"byteOffset":6336,"byteLength":264,"byteStride":12,"target":34962},{"buffer":0,"byteOffset":6600,"byteLength":480,"target":34963},{"buffer":0,"byteOffset":7080,"byteLength":264,"byteStride":12,"target":34962},{"buffer":0,"byteOffset":7344,"byteLength":480,"target":34963},{"buffer":0,"byteOffset":7824,"byteLength":264,"byteStride":12,"target":34962},{"buffer":0,"byteOffset":8088,"byteLength":480,"target":34963},{"buffer":0,"byteOffset":8568,"byteLength":264,"byteStride":12,"target":34962},{"buffer":0,"byteOffset":8832,"byteLength":480,"target":34963},{"buffer":0,"byteOffset":9312,"byteLength":264,"byteStride":12,"target":34962},{"buffer":0,"byteOffset":9576,"byteLength":480,"target":34963},{"buffer":0,"byteOffset":10056,"byteLength":264,"byteStride":12,"target":34962},{"buffer":0,"byteOffset":10320,"byteLength":480,"target":34963},{"buffer":0,"byteOffset":10800,"byteLength":264,"byteStride":12,"target":34962},{"buffer":0,"byteOffset":11064,"byteLength":480,"target":34963},{"buffer":0,"byteOffset":11544,"byteLength":264,"byteStride":12,"target":34962},{"buffer":0,"byteOffset":11808,"byteLength":480,"target":34963},{"buffer":0,"byteOffset":12288,"byteLength":264,"byteStride":12,"target":34962},{"buffer":0,"byteOffset":12552,"byteLength":480,"target":34963},{"buffer":0,"byteOffset":13032,"byteLength":2064,"byteStride":12,"target":34962},{"buffer":0,"byteOffset":15096,"byteLength":4080,"target":34963},{"buffer":0,"byteOffset":19176,"byteLength":540,"byteStride":12,"target":34962},{"buffer":0,"byteOffset":19716,"byteLength":900,"target":34963},{"buffer":0,"byteOffset":20616,"byteLength":576,"byteStride":12,"target":34962},{"buffer":0,"byteOffset":21192,"byteLength":948,"target":34963},{"buffer":0,"byteOffset":22140,"byteLength":2280,"byteStride":12,"target":34962},{"buffer":0,"byteOffset":24420,"byteLength":4116,"target":34963}],"buffers":[{"byteLength":28536,"uri":"BugGLTF.bin"}]}