# Vectary OBJ Export units=mm
mtllib Project Name.mtl
o 000_Capsule_-_baked
g Capsule_-_baked
usemtl  Organic Shapes Gold Noise_a7aa3c1d-54de-4bd0-ad4b-d1ce66b736c0
v -75.469 4.163 79.391
v -62.741 3.474 70.296
v -59.881 2.650 79.326
v -70.155 5.612 64.740
v -79.290 8.247 64.781
v -86.658 10.373 70.402
v -89.443 11.177 79.457
v -86.584 10.352 88.487
v -79.170 8.212 94.042
v -70.035 5.577 94.002
v -62.667 3.453 88.381
v -50.128 9.105 62.030
v -44.517 7.646 78.910
v -64.268 12.789 51.782
v -81.532 17.303 52.079
v -95.328 20.922 62.809
v -100.387 22.252 79.873
v -94.781 20.779 96.752
v -80.647 17.071 107.001
v -63.382 12.558 106.703
v -49.580 8.962 95.974
v -39.528 20.988 55.432
v -31.474 19.248 77.994
v -59.000 25.226 42.022
v -82.442 30.388 42.886
v -100.900 34.498 57.694
v -107.336 35.941 80.789
v -99.297 34.139 103.350
v -79.846 29.813 116.760
v -56.403 24.658 115.896
v -37.922 20.641 101.089
v -32.593 37.924 51.270
v -22.715 36.328 76.725
v -55.345 41.670 36.558
v -82.261 46.230 38.206
v -103.063 49.850 55.585
v -109.825 51.045 82.058
v -99.976 49.308 107.512
v -77.262 45.373 122.225
v -50.341 40.837 120.577
v -29.498 37.422 103.197
v -30.239 57.716 50.074
v -19.499 56.610 75.496
v -53.783 60.248 35.849
v -81.117 63.377 38.256
v -101.804 65.880 56.376
v -107.967 66.648 83.286
v -97.262 65.321 108.709
v -73.760 62.515 122.933
v -46.418 59.440 120.526
v -25.682 57.243 102.407
v -52.485 180.188 55.834
v -42.588 182.695 71.546
v -69.470 176.076 49.120
v -87.069 172.069 53.969
v -98.549 169.594 68.528
v -99.504 169.393 87.237
v -89.568 171.521 102.949
v -72.554 175.355 109.662
v -54.976 179.569 104.813
v -43.539 182.450 90.254
v -59.926 197.171 57.897
v -50.858 199.958 71.681
v -75.030 192.705 52.323
v -90.417 188.377 57.088
v -100.193 185.743 70.373
v -100.602 185.635 87.102
v -91.485 188.085 100.886
v -76.348 192.325 106.460
v -60.990 196.850 101.694
v -51.264 199.832 88.410
v -68.579 211.489 61.758
v -61.133 214.128 72.673
v -80.662 207.333 57.578
v -92.779 203.321 61.730
v -100.290 200.912 72.628
v -100.303 200.908 86.110
v -92.815 203.309 97.025
v -80.705 207.318 101.205
v -68.614 211.477 97.052
v -61.147 214.123 86.154
v -77.054 221.914 66.929
v -71.797 223.965 74.429
v -85.415 218.721 64.188
v -93.692 215.639 67.255
v -98.716 213.808 74.957
v -98.556 213.866 84.353
v -93.273 215.793 91.854
v -84.898 218.916 94.595
v -76.638 222.076 91.528
v -71.638 224.027 83.826
v -84.220 227.705 72.950
v -81.505 228.818 76.757
v -88.481 225.976 71.603
v -92.662 224.302 73.230
v -95.164 223.310 77.211
v -95.028 223.364 82.025
v -92.305 224.444 85.833
v -88.041 226.154 87.180
v -83.864 227.850 85.552
v -81.370 228.874 81.571
v -89.372 228.537 79.391
vt 0.05000 0.00000
vt 0.10000 0.05000
vt 0.00000 0.05000
vt 0.15000 0.00000
vt 0.20000 0.05000
vt 0.25000 0.00000
vt 0.30000 0.05000
vt 0.35000 0.00000
vt 0.40000 0.05000
vt 0.45000 0.00000
vt 0.50000 0.05000
vt 0.55000 0.00000
vt 0.60000 0.05000
vt 0.65000 0.00000
vt 0.70000 0.05000
vt 0.75000 0.00000
vt 0.80000 0.05000
vt 0.85000 0.00000
vt 0.90000 0.05000
vt 0.95000 0.00000
vt 1.00000 0.05000
vt 0.10000 0.10000
vt 0.00000 0.10000
vt 0.20000 0.10000
vt 0.30000 0.10000
vt 0.40000 0.10000
vt 0.50000 0.10000
vt 0.60000 0.10000
vt 0.70000 0.10000
vt 0.80000 0.10000
vt 0.90000 0.10000
vt 1.00000 0.10000
vt 0.10000 0.15000
vt 0.00000 0.15000
vt 0.20000 0.15000
vt 0.30000 0.15000
vt 0.40000 0.15000
vt 0.50000 0.15000
vt 0.60000 0.15000
vt 0.70000 0.15000
vt 0.80000 0.15000
vt 0.90000 0.15000
vt 1.00000 0.15000
vt 0.10000 0.20000
vt 0.00000 0.20000
vt 0.20000 0.20000
vt 0.30000 0.20000
vt 0.40000 0.20000
vt 0.50000 0.20000
vt 0.60000 0.20000
vt 0.70000 0.20000
vt 0.80000 0.20000
vt 0.90000 0.20000
vt 1.00000 0.20000
vt 0.10000 0.25000
vt 0.00000 0.25000
vt 0.20000 0.25000
vt 0.30000 0.25000
vt 0.40000 0.25000
vt 0.50000 0.25000
vt 0.60000 0.25000
vt 0.70000 0.25000
vt 0.80000 0.25000
vt 0.90000 0.25000
vt 1.00000 0.25000
vt 0.10000 0.75000
vt 0.00000 0.75000
vt 0.20000 0.75000
vt 0.30000 0.75000
vt 0.40000 0.75000
vt 0.50000 0.75000
vt 0.60000 0.75000
vt 0.70000 0.75000
vt 0.80000 0.75000
vt 0.90000 0.75000
vt 1.00000 0.75000
vt 0.10000 0.80000
vt 0.00000 0.80000
vt 0.20000 0.80000
vt 0.30000 0.80000
vt 0.40000 0.80000
vt 0.50000 0.80000
vt 0.60000 0.80000
vt 0.70000 0.80000
vt 0.80000 0.80000
vt 0.90000 0.80000
vt 1.00000 0.80000
vt 0.10000 0.85000
vt 0.00000 0.85000
vt 0.20000 0.85000
vt 0.30000 0.85000
vt 0.40000 0.85000
vt 0.50000 0.85000
vt 0.60000 0.85000
vt 0.70000 0.85000
vt 0.80000 0.85000
vt 0.90000 0.85000
vt 1.00000 0.85000
vt 0.10000 0.90000
vt 0.00000 0.90000
vt 0.20000 0.90000
vt 0.30000 0.90000
vt 0.40000 0.90000
vt 0.50000 0.90000
vt 0.60000 0.90000
vt 0.70000 0.90000
vt 0.80000 0.90000
vt 0.90000 0.90000
vt 1.00000 0.90000
vt 0.10000 0.95000
vt 0.00000 0.95000
vt 0.20000 0.95000
vt 0.30000 0.95000
vt 0.40000 0.95000
vt 0.50000 0.95000
vt 0.60000 0.95000
vt 0.70000 0.95000
vt 0.80000 0.95000
vt 0.90000 0.95000
vt 1.00000 0.95000
vt 0.05000 1.00000
vt 0.15000 1.00000
vt 0.25000 1.00000
vt 0.35000 1.00000
vt 0.45000 1.00000
vt 0.55000 1.00000
vt 0.65000 1.00000
vt 0.75000 1.00000
vt 0.85000 1.00000
vt 0.95000 1.00000
vn -0.28548 -0.95839 -0.00000
vn 0.03074 -0.96453 -0.26217
vn 0.12436 -0.99152 -0.03763
vn -0.28548 -0.95839 -0.00000
vn -0.17184 -0.90611 -0.38657
vn 0.03074 -0.96453 -0.26217
vn -0.28548 -0.95839 -0.00000
vn -0.40600 -0.83855 -0.36331
vn -0.17184 -0.90611 -0.38657
vn -0.28548 -0.95839 -0.00000
vn -0.58230 -0.78767 -0.20128
vn -0.40600 -0.83855 -0.36331
vn -0.28548 -0.95839 -0.00000
vn -0.63340 -0.77291 0.03763
vn -0.58230 -0.78767 -0.20128
vn -0.28548 -0.95839 0.00000
vn -0.53979 -0.79993 0.26217
vn -0.63340 -0.77291 0.03763
vn -0.28548 -0.95839 -0.00000
vn -0.33722 -0.85840 0.38657
vn -0.53979 -0.79993 0.26217
vn -0.28548 -0.95839 0.00000
vn -0.10306 -0.92595 0.36331
vn -0.33722 -0.85840 0.38657
vn -0.28548 -0.95839 -0.00000
vn 0.07325 -0.97679 0.20128
vn -0.10306 -0.92595 0.36331
vn -0.28548 -0.95839 -0.00000
vn 0.12436 -0.99152 -0.03763
vn 0.07325 -0.97679 0.20128
vn 0.12436 -0.99152 -0.03763
vn 0.03074 -0.96453 -0.26217
vn 0.32102 -0.85056 -0.41652
vn 0.46096 -0.88698 -0.02817
vn 0.03074 -0.96453 -0.26217
vn -0.17184 -0.90611 -0.38657
vn -0.01324 -0.76341 -0.64577
vn 0.32102 -0.85056 -0.41652
vn -0.17184 -0.90611 -0.38657
vn -0.40600 -0.83855 -0.36331
vn -0.41408 -0.65855 -0.62837
vn -0.01324 -0.76341 -0.64577
vn -0.40600 -0.83855 -0.36331
vn -0.58230 -0.78767 -0.20128
vn -0.72840 -0.57605 -0.37094
vn -0.41408 -0.65855 -0.62837
vn -0.58230 -0.78767 -0.20128
vn -0.63340 -0.77291 0.03763
vn -0.83621 -0.54769 0.02817
vn -0.72840 -0.57605 -0.37094
vn -0.63340 -0.77291 0.03763
vn -0.53979 -0.79993 0.26217
vn -0.69636 -0.58446 0.41652
vn -0.83621 -0.54769 0.02817
vn -0.53979 -0.79993 0.26217
vn -0.33722 -0.85840 0.38657
vn -0.36224 -0.67213 0.64577
vn -0.69636 -0.58446 0.41652
vn -0.33722 -0.85840 0.38657
vn -0.10306 -0.92595 0.36331
vn 0.03861 -0.77696 0.62837
vn -0.36224 -0.67213 0.64577
vn -0.10306 -0.92595 0.36331
vn 0.07325 -0.97679 0.20128
vn 0.35307 -0.85892 0.37094
vn 0.03861 -0.77696 0.62837
vn 0.07325 -0.97679 0.20128
vn 0.12436 -0.99152 -0.03763
vn 0.46096 -0.88698 -0.02817
vn 0.35307 -0.85892 0.37094
vn 0.46096 -0.88698 -0.02817
vn 0.32102 -0.85056 -0.41652
vn 0.57382 -0.60369 -0.55343
vn 0.76327 -0.64468 -0.04247
vn 0.32102 -0.85056 -0.41652
vn -0.01324 -0.76341 -0.64577
vn 0.12683 -0.50628 -0.85299
vn 0.57382 -0.60369 -0.55343
vn -0.01324 -0.76341 -0.64577
vn -0.41408 -0.65855 -0.62837
vn -0.40676 -0.38864 -0.82675
vn 0.12683 -0.50628 -0.85299
vn -0.41408 -0.65855 -0.62837
vn -0.72840 -0.57605 -0.37094
vn -0.82314 -0.29580 -0.48471
vn -0.40676 -0.38864 -0.82675
vn -0.72840 -0.57605 -0.37094
vn -0.83621 -0.54769 0.02817
vn -0.96351 -0.26429 0.04247
vn -0.82314 -0.29580 -0.48471
vn -0.83621 -0.54769 0.02817
vn -0.69636 -0.58446 0.41652
vn -0.77437 -0.30670 0.55343
vn -0.96351 -0.26429 0.04247
vn -0.69636 -0.58446 0.41652
vn -0.36224 -0.67213 0.64577
vn -0.32782 -0.40612 0.85299
vn -0.77437 -0.30670 0.55343
vn -0.36224 -0.67213 0.64577
vn 0.03861 -0.77696 0.62837
vn 0.20580 -0.52358 0.82675
vn -0.32782 -0.40612 0.85299
vn 0.03861 -0.77696 0.62837
vn 0.35307 -0.85892 0.37094
vn 0.62265 -0.61430 0.48471
vn 0.20580 -0.52358 0.82675
vn 0.35307 -0.85892 0.37094
vn 0.46096 -0.88698 -0.02817
vn 0.76327 -0.64468 -0.04247
vn 0.62265 -0.61430 0.48471
vn 0.76327 -0.64468 -0.04247
vn 0.57382 -0.60369 -0.55343
vn 0.79292 -0.37443 -0.48070
vn 0.92441 -0.35884 -0.12923
vn 0.57382 -0.60369 -0.55343
vn 0.12683 -0.50628 -0.85299
vn 0.35462 -0.30252 -0.88472
vn 0.66630 -0.31689 -0.67500
vn 0.12683 -0.50628 -0.85299
vn -0.40676 -0.38864 -0.82675
vn -0.23402 -0.20298 -0.95080
vn 0.14079 -0.23001 -0.96295
vn -0.40676 -0.38864 -0.82675
vn -0.82314 -0.29580 -0.48471
vn -0.74814 -0.11374 -0.65372
vn -0.45103 -0.12936 -0.88308
vn -0.82314 -0.29580 -0.48471
vn -0.96351 -0.26429 0.04247
vn -0.99173 -0.07102 -0.10693
vn -0.88320 -0.05383 -0.46591
vn -0.96351 -0.26429 0.04247
vn -0.77437 -0.30670 0.55343
vn -0.87198 -0.09258 0.48070
vn -0.99101 -0.03457 0.12923
vn -0.77437 -0.30670 0.55343
vn -0.32782 -0.40612 0.85299
vn -0.43443 -0.16894 0.88472
vn -0.73347 -0.07992 0.67500
vn -0.32782 -0.40612 0.85299
vn 0.20580 -0.52358 0.82675
vn 0.15417 -0.26870 0.95080
vn -0.20865 -0.17085 0.96295
vn 0.20580 -0.52358 0.82675
vn 0.62265 -0.61430 0.48471
vn 0.66902 -0.35365 0.65372
vn 0.38332 -0.27061 0.88308
vn 0.62265 -0.61430 0.48471
vn 0.76327 -0.64468 -0.04247
vn 0.91309 -0.39348 0.10693
vn 0.81626 -0.34153 0.46591
vn 0.94191 -0.25146 -0.22266
vn 0.76684 -0.26587 -0.58418
vn 0.79798 -0.04950 -0.60065
vn 0.99213 -0.05880 -0.11054
vn 0.62976 -0.20053 -0.75046
vn 0.27698 -0.18518 -0.94286
vn 0.29540 0.00445 -0.95536
vn 0.73899 -0.03259 -0.67293
vn 0.07115 -0.10797 -0.99161
vn -0.32698 -0.08279 -0.94140
vn -0.31797 0.07460 -0.94516
vn 0.20572 0.02500 -0.97829
vn -0.52023 -0.00717 -0.85399
vn -0.81436 0.00206 -0.58035
vn -0.80789 0.13379 -0.57394
vn -0.40363 0.09503 -0.90998
vn -0.91860 0.06269 -0.39019
vn -0.99940 0.03468 0.00237
vn -0.98762 0.15601 0.01651
vn -0.85637 0.15004 -0.49408
vn -0.97219 0.07258 0.22266
vn -0.81162 0.00135 0.58418
vn -0.78870 0.13102 0.60065
vn -0.97998 0.16557 0.11054
vn -0.66068 0.01792 0.75046
vn -0.32250 -0.08369 0.94286
vn -0.28685 0.07070 0.95536
vn -0.72742 0.13424 0.67293
vn -0.10272 -0.07854 0.99161
vn 0.28151 -0.18580 0.94140
vn 0.32661 0.00127 0.94516
vn -0.19485 0.07058 0.97829
vn 0.48889 -0.17800 0.85399
vn 0.76966 -0.26610 0.58035
vn 0.81730 -0.05111 0.57394
vn 0.41466 0.00193 0.90998
vn 0.88805 -0.24315 0.39019
vn 0.95512 -0.29620 -0.00237
vn 0.99742 -0.06984 -0.01651
vn 0.86819 -0.04617 0.49408
vn 0.89593 -0.03562 -0.44276
vn 0.79798 -0.04950 -0.60065
vn 0.58613 0.29836 -0.75328
vn 0.87042 0.37203 -0.32243
vn 0.46733 0.00989 -0.88403
vn 0.29540 0.00445 -0.95536
vn 0.03884 0.16156 -0.98610
vn 0.51471 0.27957 -0.81050
vn -0.13697 0.07635 -0.98763
vn -0.31797 0.07460 -0.94516
vn -0.53845 0.02590 -0.84226
vn -0.05169 0.13867 -0.98899
vn -0.68589 0.14064 -0.71399
vn -0.80789 0.13379 -0.57394
vn -0.92438 -0.06004 -0.37671
vn -0.61343 0.00734 -0.78972
vn -0.96994 0.17638 -0.16763
vn -0.98762 0.15601 0.01651
vn -0.97001 -0.07010 0.23273
vn -0.95497 -0.06805 -0.28880
vn -0.88104 0.16656 0.44276
vn -0.78870 0.13102 0.60065
vn -0.65770 -0.00134 0.75328
vn -0.94434 -0.06525 0.32243
vn -0.45316 0.11462 0.88403
vn -0.28685 0.07070 0.95536
vn -0.10816 0.12614 0.98610
vn -0.58556 0.01445 0.81050
vn 0.15062 0.04363 0.98763
vn 0.32661 0.00127 0.94516
vn 0.46756 0.26830 0.84226
vn -0.01714 0.14699 0.98899
vn 0.69995 -0.01704 0.71399
vn 0.81730 -0.05111 0.57394
vn 0.85028 0.36757 0.37671
vn 0.54277 0.28592 0.78972
vn 0.98478 -0.04601 0.16763
vn 0.99742 -0.06984 -0.01651
vn 0.89549 0.37939 -0.23273
vn 0.88116 0.37437 0.28880
vn 0.87042 0.37203 -0.32243
vn 0.58613 0.29836 -0.75328
vn 0.49486 0.40525 -0.76869
vn 0.81672 0.50782 -0.27403
vn 0.51471 0.27957 -0.81050
vn 0.03884 0.16156 -0.98610
vn -0.04360 0.24021 -0.96974
vn 0.49486 0.40525 -0.76869
vn -0.05169 0.13867 -0.98899
vn -0.53845 0.02590 -0.84226
vn -0.59415 0.07980 -0.80038
vn -0.04360 0.24021 -0.96974
vn -0.61343 0.00734 -0.78972
vn -0.92438 -0.06004 -0.37671
vn -0.94543 -0.01821 -0.32531
vn -0.59415 0.07980 -0.80038
vn -0.95497 -0.06805 -0.28880
vn -0.97001 -0.07010 0.23273
vn -0.96146 -0.02261 0.27403
vn -0.94543 -0.01821 -0.32531
vn -0.94434 -0.06525 0.32243
vn -0.65770 -0.00134 0.75328
vn -0.63600 0.06792 0.76869
vn -0.96146 -0.02261 0.27403
vn -0.58556 0.01445 0.81050
vn -0.10816 0.12614 0.98610
vn -0.09513 0.22484 0.96974
vn -0.63600 0.06792 0.76869
vn -0.01714 0.14699 0.98899
vn 0.46756 0.26830 0.84226
vn 0.45334 0.39226 0.80038
vn -0.09513 0.22484 0.96974
vn 0.54277 0.28592 0.78972
vn 0.85028 0.36757 0.37671
vn 0.80090 0.50273 0.32531
vn 0.45334 0.39226 0.80038
vn 0.88116 0.37437 0.28880
vn 0.89549 0.37939 -0.23273
vn 0.81672 0.50782 -0.27403
vn 0.80090 0.50273 0.32531
vn 0.81672 0.50782 -0.27403
vn 0.49486 0.40525 -0.76869
vn 0.38627 0.54502 -0.74414
vn 0.69715 0.65988 -0.28024
vn 0.49486 0.40525 -0.76869
vn -0.04360 0.24021 -0.96974
vn -0.12173 0.36299 -0.92381
vn 0.38627 0.54502 -0.74414
vn -0.04360 0.24021 -0.96974
vn -0.59415 0.07980 -0.80038
vn -0.63389 0.18645 -0.75061
vn -0.12173 0.36299 -0.92381
vn -0.59415 0.07980 -0.80038
vn -0.94543 -0.01821 -0.32531
vn -0.95348 0.07978 -0.29070
vn -0.63389 0.18645 -0.75061
vn -0.94543 -0.01821 -0.32531
vn -0.96146 -0.02261 0.27403
vn -0.95670 0.07869 0.28024
vn -0.95348 0.07978 -0.29070
vn -0.96146 -0.02261 0.27403
vn -0.63600 0.06792 0.76869
vn -0.64231 0.18356 0.74414
vn -0.95670 0.07869 0.28024
vn -0.63600 0.06792 0.76869
vn -0.09513 0.22484 0.96974
vn -0.13211 0.35935 0.92381
vn -0.64231 0.18356 0.74414
vn -0.09513 0.22484 0.96974
vn 0.45334 0.39226 0.80038
vn 0.37790 0.54201 0.75061
vn -0.13211 0.35935 0.92381
vn 0.45334 0.39226 0.80038
vn 0.80090 0.50273 0.32531
vn 0.69396 0.65872 0.29070
vn 0.37790 0.54201 0.75061
vn 0.80090 0.50273 0.32531
vn 0.81672 0.50782 -0.27403
vn 0.69715 0.65988 -0.28024
vn 0.69396 0.65872 0.29070
vn 0.69715 0.65988 -0.28024
vn 0.38627 0.54502 -0.74414
vn 0.23680 0.70322 -0.67038
vn 0.51509 0.81685 -0.25968
vn 0.38627 0.54502 -0.74414
vn -0.12173 0.36299 -0.92381
vn -0.21202 0.52383 -0.82502
vn 0.23680 0.70322 -0.67038
vn -0.12173 0.36299 -0.92381
vn -0.63389 0.18645 -0.75061
vn -0.66069 0.34914 -0.66453
vn -0.21202 0.52383 -0.82502
vn -0.63389 0.18645 -0.75061
vn -0.95348 0.07978 -0.29070
vn -0.93699 0.24381 -0.25021
vn -0.66069 0.34914 -0.66453
vn -0.95348 0.07978 -0.29070
vn -0.95670 0.07869 0.28024
vn -0.93414 0.24484 0.25968
vn -0.93699 0.24381 -0.25021
vn -0.95670 0.07869 0.28024
vn -0.64231 0.18356 0.74414
vn -0.65326 0.35192 0.67038
vn -0.93414 0.24484 0.25968
vn -0.64231 0.18356 0.74414
vn -0.13211 0.35935 0.92381
vn -0.20291 0.52742 0.82502
vn -0.65326 0.35192 0.67038
vn -0.13211 0.35935 0.92381
vn 0.37790 0.54201 0.75061
vn 0.24412 0.70627 0.66453
vn -0.20291 0.52742 0.82502
vn 0.37790 0.54201 0.75061
vn 0.69396 0.65872 0.29070
vn 0.51787 0.81805 0.25021
vn 0.24412 0.70627 0.66453
vn 0.69396 0.65872 0.29070
vn 0.69715 0.65988 -0.28024
vn 0.51509 0.81685 -0.25968
vn 0.51787 0.81805 0.25021
vn 0.51509 0.81685 -0.25968
vn 0.23680 0.70322 -0.67038
vn 0.04141 0.88156 -0.47024
vn 0.22688 0.96150 -0.15505
vn 0.23680 0.70322 -0.67038
vn -0.21202 0.52383 -0.82502
vn -0.27849 0.74527 -0.60582
vn 0.04141 0.88156 -0.47024
vn -0.21202 0.52383 -0.82502
vn -0.66069 0.34914 -0.66453
vn -0.61099 0.60547 -0.51000
vn -0.27849 0.74527 -0.60582
vn -0.66069 0.34914 -0.66453
vn -0.93699 0.24381 -0.25021
vn -0.82875 0.51483 -0.21937
vn -0.61099 0.60547 -0.51000
vn -0.93699 0.24381 -0.25021
vn -0.93414 0.24484 0.25968
vn -0.84807 0.50670 0.15505
vn -0.82875 0.51483 -0.21937
vn -0.93414 0.24484 0.25968
vn -0.65326 0.35192 0.67038
vn -0.66155 0.58414 0.47024
vn -0.84807 0.50670 0.15505
vn -0.65326 0.35192 0.67038
vn -0.20291 0.52742 0.82502
vn -0.34096 0.71884 0.60582
vn -0.66155 0.58414 0.47024
vn -0.20291 0.52742 0.82502
vn 0.24412 0.70627 0.66453
vn -0.00910 0.86013 0.51000
vn -0.34096 0.71884 0.60582
vn 0.24412 0.70627 0.66453
vn 0.51787 0.81805 0.25021
vn 0.20759 0.95330 0.21937
vn -0.00910 0.86013 0.51000
vn 0.51787 0.81805 0.25021
vn 0.51509 0.81685 -0.25968
vn 0.22688 0.96150 -0.15505
vn 0.20759 0.95330 0.21937
vn 0.22688 0.96150 -0.15505
vn 0.04141 0.88156 -0.47024
vn -0.39735 0.91767 0.00000
vn 0.04141 0.88156 -0.47024
vn -0.27849 0.74527 -0.60582
vn -0.39735 0.91767 0.00000
vn -0.27849 0.74527 -0.60582
vn -0.61099 0.60547 -0.51000
vn -0.39735 0.91767 0.00000
vn -0.61099 0.60547 -0.51000
vn -0.82875 0.51483 -0.21937
vn -0.39735 0.91767 0.00000
vn -0.82875 0.51483 -0.21937
vn -0.84807 0.50670 0.15505
vn -0.39735 0.91767 0.00000
vn -0.84807 0.50670 0.15505
vn -0.66155 0.58414 0.47024
vn -0.39735 0.91767 0.00000
vn -0.66155 0.58414 0.47024
vn -0.34096 0.71884 0.60582
vn -0.39735 0.91767 0.00000
vn -0.34096 0.71884 0.60582
vn -0.00910 0.86013 0.51000
vn -0.39735 0.91767 0.00000
vn -0.00910 0.86013 0.51000
vn 0.20759 0.95330 0.21937
vn -0.39735 0.91767 0.00000
vn 0.20759 0.95330 0.21937
vn 0.22688 0.96150 -0.15505
vn -0.39735 0.91767 0.00000
f 1/1/1 2/2/2 3/3/3 
f 1/4/4 4/5/5 2/2/6 
f 1/6/7 5/7/8 4/5/9 
f 1/8/10 6/9/11 5/7/12 
f 1/10/13 7/11/14 6/9/15 
f 1/12/16 8/13/17 7/11/18 
f 1/14/19 9/15/20 8/13/21 
f 1/16/22 10/17/23 9/15/24 
f 1/18/25 11/19/26 10/17/27 
f 1/20/28 3/21/29 11/19/30 
f 2/2/32 12/22/33 13/23/34 3/3/31 
f 4/5/36 14/24/37 12/22/38 2/2/35 
f 5/7/40 15/25/41 14/24/42 4/5/39 
f 6/9/44 16/26/45 15/25/46 5/7/43 
f 7/11/48 17/27/49 16/26/50 6/9/47 
f 8/13/52 18/28/53 17/27/54 7/11/51 
f 9/15/56 19/29/57 18/28/58 8/13/55 
f 10/17/60 20/30/61 19/29/62 9/15/59 
f 11/19/64 21/31/65 20/30/66 10/17/63 
f 3/21/68 13/32/69 21/31/70 11/19/67 
f 12/22/72 22/33/73 23/34/74 13/23/71 
f 14/24/76 24/35/77 22/33/78 12/22/75 
f 15/25/80 25/36/81 24/35/82 14/24/79 
f 16/26/84 26/37/85 25/36/86 15/25/83 
f 17/27/88 27/38/89 26/37/90 16/26/87 
f 18/28/92 28/39/93 27/38/94 17/27/91 
f 19/29/96 29/40/97 28/39/98 18/28/95 
f 20/30/100 30/41/101 29/40/102 19/29/99 
f 21/31/104 31/42/105 30/41/106 20/30/103 
f 13/32/108 23/43/109 31/42/110 21/31/107 
f 22/33/112 32/44/113 33/45/114 23/34/111 
f 24/35/116 34/46/117 32/44/118 22/33/115 
f 25/36/120 35/47/121 34/46/122 24/35/119 
f 26/37/124 36/48/125 35/47/126 25/36/123 
f 27/38/128 37/49/129 36/48/130 26/37/127 
f 28/39/132 38/50/133 37/49/134 27/38/131 
f 29/40/136 39/51/137 38/50/138 28/39/135 
f 30/41/140 40/52/141 39/51/142 29/40/139 
f 31/42/144 41/53/145 40/52/146 30/41/143 
f 23/43/148 33/54/149 41/53/150 31/42/147 
f 32/44/152 42/55/153 43/56/154 33/45/151 
f 34/46/156 44/57/157 42/55/158 32/44/155 
f 35/47/160 45/58/161 44/57/162 34/46/159 
f 36/48/164 46/59/165 45/58/166 35/47/163 
f 37/49/168 47/60/169 46/59/170 36/48/167 
f 38/50/172 48/61/173 47/60/174 37/49/171 
f 39/51/176 49/62/177 48/61/178 38/50/175 
f 40/52/180 50/63/181 49/62/182 39/51/179 
f 41/53/184 51/64/185 50/63/186 40/52/183 
f 33/54/188 43/65/189 51/64/190 41/53/187 
f 42/55/192 52/66/193 53/67/194 43/56/191 
f 44/57/196 54/68/197 52/66/198 42/55/195 
f 45/58/200 55/69/201 54/68/202 44/57/199 
f 46/59/204 56/70/205 55/69/206 45/58/203 
f 47/60/208 57/71/209 56/70/210 46/59/207 
f 48/61/212 58/72/213 57/71/214 47/60/211 
f 49/62/216 59/73/217 58/72/218 48/61/215 
f 50/63/220 60/74/221 59/73/222 49/62/219 
f 51/64/224 61/75/225 60/74/226 50/63/223 
f 43/65/228 53/76/229 61/75/230 51/64/227 
f 52/66/232 62/77/233 63/78/234 53/67/231 
f 54/68/236 64/79/237 62/77/238 52/66/235 
f 55/69/240 65/80/241 64/79/242 54/68/239 
f 56/70/244 66/81/245 65/80/246 55/69/243 
f 57/71/248 67/82/249 66/81/250 56/70/247 
f 58/72/252 68/83/253 67/82/254 57/71/251 
f 59/73/256 69/84/257 68/83/258 58/72/255 
f 60/74/260 70/85/261 69/84/262 59/73/259 
f 61/75/264 71/86/265 70/85/266 60/74/263 
f 53/76/268 63/87/269 71/86/270 61/75/267 
f 62/77/272 72/88/273 73/89/274 63/78/271 
f 64/79/276 74/90/277 72/88/278 62/77/275 
f 65/80/280 75/91/281 74/90/282 64/79/279 
f 66/81/284 76/92/285 75/91/286 65/80/283 
f 67/82/288 77/93/289 76/92/290 66/81/287 
f 68/83/292 78/94/293 77/93/294 67/82/291 
f 69/84/296 79/95/297 78/94/298 68/83/295 
f 70/85/300 80/96/301 79/95/302 69/84/299 
f 71/86/304 81/97/305 80/96/306 70/85/303 
f 63/87/308 73/98/309 81/97/310 71/86/307 
f 72/88/312 82/99/313 83/100/314 73/89/311 
f 74/90/316 84/101/317 82/99/318 72/88/315 
f 75/91/320 85/102/321 84/101/322 74/90/319 
f 76/92/324 86/103/325 85/102/326 75/91/323 
f 77/93/328 87/104/329 86/103/330 76/92/327 
f 78/94/332 88/105/333 87/104/334 77/93/331 
f 79/95/336 89/106/337 88/105/338 78/94/335 
f 80/96/340 90/107/341 89/106/342 79/95/339 
f 81/97/344 91/108/345 90/107/346 80/96/343 
f 73/98/348 83/109/349 91/108/350 81/97/347 
f 82/99/352 92/110/353 93/111/354 83/100/351 
f 84/101/356 94/112/357 92/110/358 82/99/355 
f 85/102/360 95/113/361 94/112/362 84/101/359 
f 86/103/364 96/114/365 95/113/366 85/102/363 
f 87/104/368 97/115/369 96/114/370 86/103/367 
f 88/105/372 98/116/373 97/115/374 87/104/371 
f 89/106/376 99/117/377 98/116/378 88/105/375 
f 90/107/380 100/118/381 99/117/382 89/106/379 
f 91/108/384 101/119/385 100/118/386 90/107/383 
f 83/109/388 93/120/389 101/119/390 91/108/387 
f 93/111/391 92/110/392 102/121/393 
f 92/110/394 94/112/395 102/122/396 
f 94/112/397 95/113/398 102/123/399 
f 95/113/400 96/114/401 102/124/402 
f 96/114/403 97/115/404 102/125/405 
f 97/115/406 98/116/407 102/126/408 
f 98/116/409 99/117/410 102/127/411 
f 99/117/412 100/118/413 102/128/414 
f 100/118/415 101/119/416 102/129/417 
f 101/119/418 93/120/419 102/130/420 
